<?xml version="1.0" encoding="utf-8"?>
<!-- Generator: Adobe Illustrator 19.1.0, SVG Export Plug-In . SVG Version: 6.00 Build 0)  -->
<svg version="1.1" id="Layer_1" xmlns="http://www.w3.org/2000/svg" xmlns:xlink="http://www.w3.org/1999/xlink" x="0px" y="0px"
	 viewBox="0 0 230 45" style="enable-background:new 0 0 230 45;" xml:space="preserve">
<g>
	<path d="M0,45V0h11.1c3.5,0,6.1,1,7.9,2.9c1.8,1.9,2.6,4.7,2.6,8.3v22.8c0,3.6-0.9,6.4-2.6,8.3c-1.8,1.9-4.4,2.8-7.9,2.8H0z
		 M7,38.6h4c1.2,0,2.1-0.3,2.7-1c0.6-0.7,0.9-1.8,0.9-3.3V10.8c0-1.5-0.3-2.7-0.9-3.3c-0.6-0.7-1.5-1-2.7-1H7V38.6z"/>
	<path d="M24.2,45l7.1-45h10.9l7.1,45h-7l-1.2-8.2h-8.7L31.3,45H24.2z M33.4,30.7h6.9L36.8,7.9l-0.1,0.2L33.4,30.7z"/>
	<path d="M52.1,45V0h9.5l7.1,27h0.1V0h6.3v45h-7.3l-8.6-32.6h-0.1V45H52.1z"/>
	<path d="M79.5,45V0h7v45H79.5z"/>
	<path d="M91.7,45V0h19.2v6.4H98.7V19h9.7v6.4h-9.7v13.2h12.2V45H91.7z"/>
	<path d="M115.2,45V0h7v38.6h11.6V45H115.2z"/>
	<path d="M146.9,45V0h10.6c3.6,0,6.2,0.8,7.9,2.5c1.7,1.7,2.5,4.3,2.5,7.8v3.5c0,4.6-1.5,7.6-4.6,9.1v0.1c1.7,0.7,2.9,1.9,3.6,3.4
		c0.7,1.6,1.1,3.6,1.1,6.1v6.9c0,2.5,0.2,4.3,0.7,5.5h-7c-0.2-0.5-0.3-0.9-0.3-1.2c-0.1-0.3-0.1-0.8-0.2-1.5
		c-0.1-0.7-0.1-1.7-0.1-2.8v-7.1c0-2.1-0.4-3.5-1.1-4.4c-0.7-0.9-1.9-1.3-3.5-1.3h-2.4V45H146.9z M153.9,20.3h2.8
		c1.4,0,2.5-0.4,3.2-1.1c0.7-0.7,1.1-2,1.1-3.7v-4.4c0-1.6-0.3-2.8-0.8-3.5c-0.6-0.7-1.5-1.1-2.7-1.1h-3.4V20.3z"/>
	<path d="M172.6,45V0h19.2v6.4h-12.2V19h9.7v6.4h-9.7v13.2h12.2V45H172.6z"/>
	<path d="M196.2,45V0h7v45H196.2z"/>
	<path d="M208.3,45V0h11.1c3.5,0,6.1,1,7.9,2.9s2.6,4.7,2.6,8.3v22.8c0,3.6-0.9,6.4-2.6,8.3S223,45,219.5,45H208.3z M215.4,38.6h4
		c1.2,0,2.1-0.3,2.7-1c0.6-0.7,0.9-1.8,0.9-3.3V10.8c0-1.5-0.3-2.7-0.9-3.3c-0.6-0.7-1.5-1-2.7-1h-4V38.6z"/>
</g>
</svg>
